<svg xmlns="http://www.w3.org/2000/svg" viewBox="0 0 400 300">
  <path
    fill="#a6a6a6"
    d="M268.85 121.44c-.42.5.01 2.31 2.26 9.61 1.8 5.83 2.22 8.64 1.59 10.87-.54 1.92-1.42 2.75-3.73 3.48-.98.31-2.01.65-2.29.74-.28.09-.85.03-1.27-.14-1.39-.56-4-5.02-5.88-10.05-3.8-10.16-8.77-33.66-13.28-62.8-1.43-9.21-1.72-13.44-1.08-15.67.52-1.81 2.11-3.88 3.52-4.6 2.29-1.16 3.19-1.17 5.49-.07 1.102.528 1.845.804 2.349 1.316 1.048 1.064 1.064 3.144 1.122 10.609l.019 2.295c.07 8.48.27 13.08.7 16.46.94 7.33 1.38 9.39 2.02 9.52.35.06 1.82-1.39 3.94-3.9 4.37-5.18 11.76-12.32 14.98-14.47 4.28-2.86 6.68-3.81 9.61-3.82 1.95-.01 2.91.18 4.18.81 2.17 1.08 2.71 2.21 2.31 4.84l-.31 2-5.29 4.78c-8.74 7.91-16.59 16.52-19.35 21.23-1.13 1.93-1.04 2.6.37 2.91 1.32.28 18.07 6.11 24.27 8.44 2.71 1.02 6.22 2.28 7.8 2.79 3.73 1.23 4.47 2.01 4.65 4.91.41 6.35-2.58 8.26-11.17 7.14-7.84-1.02-14.1-3.02-22.11-7.08-3.82-1.94-5.15-2.47-5.42-2.15ZM108.03 63.45c-6.91 0-13.2 1.96-18.41 5.74-4.16 3.02-15.17 14.95-17.34 18.79-1.09 1.93-1.96 2.42-2.69 1.49-1.05-1.34-1.87-6.39-2.37-14.74-.78-12.9-1.22-15.29-3.55-19.26l-.96-1.63-1.72.2c-3.72.44-5.85 2.53-6.69 6.55-.64 3.07-.21 12.3.85 18.03 3.35 18.2 9.79 41.66 15.31 55.74 2.7 6.89 5.18 11.31 6.93 12.38 1.5.91 2.91.85 5.08-.23 2.41-1.21 3.46-2.53 3.98-4.99 1-4.84-.25-9.36-4.57-16.51-3.38-5.58-4.32-7.74-4.39-10.13-.08-2.57.5-2.96 3.69-2.43 5.13.85 9.98 3.23 20.75 10.2 11.92 7.71 16.66 9.85 23.13 10.45 3.06.28 3.95-.12 5.03-2.25.98-1.96 1.09-5.8.22-7.64-1.19-2.51-8.02-7.07-18.97-12.67-9.59-4.91-24.78-11.56-29.05-12.72-.25-.07-.45-.41-.45-.77 0-.95 8.23-9.15 14.49-14.43 6.02-5.08 10.41-9.53 11.88-12.04.52-.89 1.15-2.58 1.39-3.76l.04-.191c.382-1.794.548-2.576.234-2.917-.242-.263-.77-.263-1.707-.262h-.137Zm210.44-1.18c2.45 1.51 4.07 3.99 4.25 6.47.08 1.11-.02 2.34-.23 2.73-1.04 1.94-4.89 2.34-9.93 1.04l-3-.77.1-1.94c.25-4.92 1.86-7.42 5.23-8.12 1.89-.39 2.03-.37 3.58.59Zm4.39 24.99c1.07-.26 1.12-.11 1.53 4.59.37 4.34 1.21 8.6 3.52 17.82 4.49 17.97 5.82 24.99 5.82 30.81 0 3.05-.97 5.33-2.7 6.32-1.35.78-4.06 1.06-5.87.6-3.04-.76-4.87-2.51-6.95-6.67-3.42-6.82-5.3-22.54-4.76-39.77l.25-7.83 1.23-1.44c1.19-1.39 5.64-3.88 7.93-4.43Zm-135.55 17.68c1.09-5.22-2.32-11.05-8.02-13.72-1.99-.93-2.9-1.13-5.59-1.25-5.9-.26-9.34 1.07-13.55 5.23-3.59 3.56-7.59 10.28-8.81 14.82-.58 2.13-1.49 1.9-2.48-.62-1.48-3.76-5.21-11.18-6.77-13.49-2.1-3.1-3.45-4-5.72-3.78-2.96.27-4.43 2.65-4.43 7.13 0 8.09 9.19 30.09 16.8 40.22 3.72 4.95 6.11 7.05 8.89 7.79 2.09.57 2.15.57 4.26.12 1.92-.42 3.7-2.02 4.13-3.72.46-1.83-.14-7.41-1.31-12.13-1.07-4.32-1.17-5.22-1.14-9.7.07-9.82 2.42-15.53 6.9-16.8.83-.24 1.86-.75 2.29-1.13 1.02-.91 1.37-.62 3.49 3.01l1.67 2.84 2.36-.2c4.36-.37 6.43-1.73 7.03-4.62Zm1.65 12.03c2-8.94 9.32-17.66 18.83-22.46 5.78-2.91 10.66-4.22 16.76-4.49 5.78-.25 7.4.34 11.14 4.09 5.41 5.42 8.4 13.36 7.98 21.17-.25 4.46-.91 7.03-2.74 10.71-3.98 7.97-10.65 14.49-18.86 18.44-5.37 2.58-11.76 3.71-16.92 2.99-8.67-1.21-14.39-7.15-16.26-16.88-.68-3.53-.65-10.39.07-13.57Zm16.56-.24c-3.62 4.31-4.44 6-4.44 9.11 0 4.82 1.82 7.51 5.82 8.56 1.79.48 6.2.09 8.25-.73 2.93-1.16 5.59-3.06 8.68-6.18 3.11-3.15 4.76-5.67 6.07-9.27 1.56-4.29 1.43-9.26-.34-12.77-1.07-2.14-2.29-2.96-4.33-2.93-4.18.06-13.45 6.75-19.71 14.21Z"
  />
  <text x="60" y="200" fill="#A6A6A6" font-size="20">
    Fail, please check your input,
  </text>
  <text x="60" y="230" fill="#A6A6A6" font-size="20">
    or check the server response.
  </text>
</svg>
